<mxfile host="app.diagrams.net" modified="2023-03-30T09:12:00.898Z" agent="Mozilla/5.0 (Macintosh; Intel Mac OS X 10_15_7) AppleWebKit/537.36 (KHTML, like Gecko) Chrome/111.0.0.0 Safari/537.36" version="21.1.1" etag="Es-pMhVbbKMQPFp3PgPd" type="github">
  <diagram name="Page-1" id="CzogB4TOcSj8OKkRqogl">
    <mxGraphModel>
      <root>
        <mxCell id="0" />
        <mxCell id="1" parent="0" />
      </root>
    </mxGraphModel>
  </diagram>
</mxfile>
